<?xml version="1.0" encoding="utf-8"?>
<!-- Generator: Adobe Illustrator 21.0.0, SVG Export Plug-In . SVG Version: 6.00 Build 0)  -->
<svg version="1.1" id="Layer_1" xmlns="http://www.w3.org/2000/svg" xmlns:xlink="http://www.w3.org/1999/xlink" x="0px" y="0px"
	 viewBox="0 0 800 438" style="enable-background:new 0 0 800 438;" xml:space="preserve">
<style type="text/css">
	.st0{fill:#00B28B;}
</style>
<g>
	<path class="st0" d="M127,384L127,384c-43.1,0-78-34.9-78-78V132c0-43.1,34.9-78,78-78h0c43.1,0,78,34.9,78,78v174
		C205,349.1,170.1,384,127,384z"/>
</g>
<g>
	<path class="st0" d="M400,431.5L400,431.5c-43.1,0-78-34.9-78-78v-269c0-43.1,34.9-78,78-78h0c43.1,0,78,34.9,78,78v269
		C478,396.6,443.1,431.5,400,431.5z"/>
</g>
<g>
	<path class="st0" d="M673,384L673,384c-43.1,0-78-34.9-78-78V132c0-43.1,34.9-78,78-78h0c43.1,0,78,34.9,78,78v174
		C751,349.1,716.1,384,673,384z"/>
</g>
</svg>
